<?xml version="1.0" standalone="no"?>
<!DOCTYPE svg PUBLIC "-//W3C//DTD SVG 20010904//EN"
 "http://www.w3.org/TR/2001/REC-SVG-20010904/DTD/svg10.dtd">
<svg version="1.0" xmlns="http://www.w3.org/2000/svg"
 width="531.000000pt" height="470.000000pt" viewBox="0 0 531.000000 470.000000"
 preserveAspectRatio="xMidYMid meet">

<g transform="translate(0.000000,470.000000) scale(0.100000,-0.100000)"
fill="#000000" stroke="none">
<path d="M2719 3173 c-32 -20 -99 -118 -99 -145 0 -33 62 -181 70 -168 4 7 13
9 19 6 6 -4 11 0 11 8 0 9 3 15 8 14 18 -3 112 15 112 23 0 4 16 11 35 15 19
3 38 10 41 15 3 5 10 7 15 4 5 -4 9 -1 9 5 0 6 6 10 13 9 45 -6 44 26 -5 127
-25 51 -42 72 -68 86 -44 23 -126 23 -161 1z"/>
<path d="M2996 2935 c-9 -26 -7 -32 5 -12 6 10 9 21 6 23 -2 3 -7 -2 -11 -11z"/>
<path d="M2156 2793 c-7 -16 -53 -118 -101 -228 -48 -110 -104 -238 -124 -285
-75 -169 -86 -203 -86 -265 0 -155 140 -267 314 -252 134 11 242 71 461 259
163 139 283 230 291 220 4 -4 37 -83 74 -177 60 -152 98 -238 81 -181 -7 22
20 57 39 50 7 -3 39 7 71 22 107 48 122 54 141 54 26 1 51 22 46 40 -2 8 6 4
18 -10 12 -14 20 -18 17 -10 -19 48 -100 244 -122 294 -33 74 -32 83 2 90 82
16 122 15 207 -4 148 -33 146 -33 105 0 -28 23 -37 26 -43 14 -4 -8 -13 -14
-20 -14 -8 0 -8 3 -2 8 19 13 15 32 -10 48 -13 9 -30 12 -36 8 -7 -4 -9 -3 -5
4 9 15 -92 50 -183 63 -97 14 -210 5 -281 -21 -77 -29 -164 -73 -172 -86 -5
-7 -38 -29 -75 -49 -38 -21 -113 -63 -168 -93 -127 -70 -309 -154 -313 -144
-1 4 43 126 98 271 55 144 98 267 95 272 -4 5 -2 9 3 9 5 0 12 12 15 26 l5 26
-24 -28 c-19 -23 -23 -25 -24 -11 0 10 -4 16 -9 12 -9 -5 -55 11 -105 37 -13
7 -16 6 -11 -2 4 -6 -10 -2 -31 9 -20 11 -41 18 -45 15 -4 -2 -10 0 -14 6 -3
5 -17 10 -31 10 -14 0 -22 4 -19 10 3 6 2 10 -4 10 -6 0 -17 -12 -25 -27z
m1419 -383 c3 -5 1 -10 -4 -10 -6 0 -11 5 -11 10 0 6 2 10 4 10 3 0 8 -4 11
-10z"/>
<path d="M2726 2773 c-4 -9 -3 -20 1 -24 4 -4 9 3 9 17 2 28 -1 31 -10 7z"/>
<path d="M2455 2740 c3 -5 8 -10 11 -10 2 0 4 5 4 10 0 6 -5 10 -11 10 -5 0
-7 -4 -4 -10z"/>
<path d="M2755 2670 c-3 -6 1 -7 9 -4 18 7 21 14 7 14 -6 0 -13 -4 -16 -10z"/>
<path d="M3150 2581 c0 -5 5 -13 10 -16 6 -3 10 -2 10 4 0 5 -4 13 -10 16 -5
3 -10 2 -10 -4z"/>
<path d="M2821 2504 c0 -11 3 -14 6 -6 3 7 2 16 -1 19 -3 4 -6 -2 -5 -13z"/>
<path d="M2840 2493 c0 -5 5 -15 10 -23 8 -12 10 -11 10 8 0 12 -4 22 -10 22
-5 0 -10 -3 -10 -7z"/>
</g>
</svg>
